<?xml version="1.0" encoding="UTF-8" standalone="no" ?>
<!DOCTYPE svg PUBLIC "-//W3C//DTD SVG 1.1//EN" "http://www.w3.org/Graphics/SVG/1.1/DTD/svg11.dtd">
<svg xmlns="http://www.w3.org/2000/svg" xmlns:xlink="http://www.w3.org/1999/xlink" version="1.1" width="1080" height="1080" viewBox="0 0 1080 1080" xml:space="preserve">
<desc>Created with Fabric.js 5.2.4</desc>
<defs>
</defs>
<g transform="matrix(1 0 0 1 540 540)" id="b584c588-b037-4bc5-89fd-a14e286834a5"  >
<rect style="stroke: none; stroke-width: 1; stroke-dasharray: none; stroke-linecap: butt; stroke-dashoffset: 0; stroke-linejoin: miter; stroke-miterlimit: 4; fill: rgb(255,255,255); fill-rule: nonzero; opacity: 1; visibility: hidden;" vector-effect="non-scaling-stroke"  x="-540" y="-540" rx="0" ry="0" width="1080" height="1080" />
</g>
<g transform="matrix(1 0 0 1 540 540)" id="b819fd81-a660-4d39-aac6-9f135b8f3078"  >
</g>
<g transform="matrix(1 0 0 1 540 540)"  >
<g style="" vector-effect="non-scaling-stroke"   >
		<g transform="matrix(0.66 0 0 0.66 -105.16 -18.94)"  >
<path style="stroke: none; stroke-width: 1; stroke-dasharray: none; stroke-linecap: butt; stroke-dashoffset: 0; stroke-linejoin: miter; stroke-miterlimit: 4; fill: rgb(0,0,0); fill-rule: nonzero; opacity: 1;" vector-effect="non-scaling-stroke"  transform=" translate(-261.57, -251.91)" d="M 241.546 235.267 C 251.25799999999998 231.784 254.20499999999998 231.784 257.553 231.851 L 257.553 264.201 C 257.553 270.161 256.884 273.846 256.147 276.994 L 266.394 276.994 C 265.323 273.10900000000004 264.988 269.02500000000003 264.988 265.00500000000005 L 264.988 231.85200000000006 C 270.815 231.85200000000006 272.623 232.32000000000005 278.116 234.53100000000006 L 281.598 226.82800000000006 L 244.226 226.82800000000006 L 241.546 235.267 z" stroke-linecap="round" />
</g>
		<g transform="matrix(0.66 0 0 0.66 -74.59 -19.01)"  >
<path style="stroke: none; stroke-width: 1; stroke-dasharray: none; stroke-linecap: butt; stroke-dashoffset: 0; stroke-linejoin: miter; stroke-miterlimit: 4; fill: rgb(0,0,0); fill-rule: nonzero; opacity: 1;" vector-effect="non-scaling-stroke"  transform=" translate(-307.61, -251.81)" d="M 327.872 226.627 L 316.41900000000004 226.627 C 317.28900000000004 229.306 318.36100000000005 232.52100000000002 318.36100000000005 239.42000000000002 L 318.36100000000005 248.32600000000002 L 296.86100000000005 248.32600000000002 L 296.86100000000005 238.14600000000002 C 296.86100000000005 231.78400000000002 298.00000000000006 228.971 298.87100000000004 226.627 L 287.35100000000006 226.627 C 288.15500000000003 228.904 289.29300000000006 232.387 289.29300000000006 239.553 L 289.29300000000006 264.066 C 289.29300000000006 271.56699999999995 288.22100000000006 274.64799999999997 287.35100000000006 276.99199999999996 L 298.7370000000001 276.99199999999996 C 297.8670000000001 274.044 296.8610000000001 270.965 296.8610000000001 262.99399999999997 L 296.8610000000001 254.68999999999997 L 318.3610000000001 254.68999999999997 L 318.3610000000001 263.53 C 318.3610000000001 271.568 317.4900000000001 273.912 316.4190000000001 276.993 L 327.87200000000007 276.993 C 326.80000000000007 274.045 325.93000000000006 271.568 325.93000000000006 263.263 L 325.93000000000006 240.022 C 325.929 232.319 326.733 229.908 327.872 226.627 z" stroke-linecap="round" />
</g>
		<g transform="matrix(0.66 0 0 0.66 -45.49 -18.97)"  >
<path style="stroke: none; stroke-width: 1; stroke-dasharray: none; stroke-linecap: butt; stroke-dashoffset: 0; stroke-linejoin: miter; stroke-miterlimit: 4; fill: rgb(0,0,0); fill-rule: nonzero; opacity: 1;" vector-effect="non-scaling-stroke"  transform=" translate(-351.44, -251.88)" d="M 336.436 276.993 L 362.758 276.993 L 366.442 268.622 C 355.79200000000003 272.238 352.243 272.238 345.813 272.238 L 345.813 253.887 C 349.631 254.154 351.506 254.422 357.26599999999996 256.096 L 361.55199999999996 249.064 L 345.81199999999995 249.064 L 345.81199999999995 231.516 C 351.10299999999995 231.316 354.04999999999995 231.986 359.67599999999993 234.53 L 363.4939999999999 226.761 L 336.4349999999999 226.761 C 337.8409999999999 231.114 338.31099999999986 236.071 338.31099999999986 239.487 L 338.31099999999986 264.067 C 338.312 270.496 337.306 274.045 336.436 276.993 z" stroke-linecap="round" />
</g>
		<g transform="matrix(0.66 0 0 0.66 -15.34 -18.99)"  >
<path style="stroke: none; stroke-width: 1; stroke-dasharray: none; stroke-linecap: butt; stroke-dashoffset: 0; stroke-linejoin: miter; stroke-miterlimit: 4; fill: rgb(0,0,0); fill-rule: nonzero; opacity: 1;" vector-effect="non-scaling-stroke"  transform=" translate(-396.84, -251.84)" d="M 398.115 226.359 C 380.635 226.359 370.588 240.155 370.588 251.341 C 370.588 264.2 380.63500000000005 277.32800000000003 396.843 277.32800000000003 C 411.04200000000003 277.32800000000003 423.098 267.348 423.098 251.67600000000004 C 423.098 238.95 414.726 226.359 398.115 226.359 z M 398.919 271.903 C 389.342 271.903 379.027 263.79900000000004 379.027 250.20200000000003 C 379.027 240.49000000000004 385.524 231.71700000000004 395.638 231.71700000000004 C 407.359 231.71700000000004 415.32899999999995 243.10300000000004 415.32899999999995 253.55100000000004 C 415.329 261.388 410.104 271.903 398.919 271.903 z" stroke-linecap="round" />
</g>
		<g transform="matrix(0.66 0 0 0.66 19.03 -18.97)"  >
<path style="stroke: none; stroke-width: 1; stroke-dasharray: none; stroke-linecap: butt; stroke-dashoffset: 0; stroke-linejoin: miter; stroke-miterlimit: 4; fill: rgb(0,0,0); fill-rule: nonzero; opacity: 1;" vector-effect="non-scaling-stroke"  transform=" translate(-448.61, -251.87)" d="M 449.946 254.488 C 452.223 253.283 459.458 249.265 459.458 241.093 C 459.458 234.32899999999998 453.362 226.56 440.43600000000004 226.76 L 430.65700000000004 226.893 C 431.19300000000004 228.635 431.997 231.381 431.997 237.275 L 431.997 264 C 431.997 268.353 431.72900000000004 272.036 430.65700000000004 276.993 L 440.838 276.993 C 439.497 271.634 439.43100000000004 270.027 439.43100000000004 266.143 L 439.43100000000004 253.75199999999998 C 449.81300000000005 267.54999999999995 452.89400000000006 271.166 459.658 276.993 L 466.557 276.993 C 460.594 269.827 454.432 262.393 449.946 254.488 z M 439.43 253.015 L 439.43 231.047 C 449.47700000000003 232.052 451.821 238.079 451.821 241.831 C 451.821 249.534 444.185 251.676 439.43 253.015 z" stroke-linecap="round" />
</g>
		<g transform="matrix(0.66 0 0 0.66 44.73 -18.97)"  >
<path style="stroke: none; stroke-width: 1; stroke-dasharray: none; stroke-linecap: butt; stroke-dashoffset: 0; stroke-linejoin: miter; stroke-miterlimit: 4; fill: rgb(0,0,0); fill-rule: nonzero; opacity: 1;" vector-effect="non-scaling-stroke"  transform=" translate(-487.31, -251.88)" d="M 472.309 276.993 L 498.63000000000005 276.993 L 502.31500000000005 268.622 C 491.6650000000001 272.238 488.1170000000001 272.238 481.68600000000004 272.238 L 481.68600000000004 253.887 C 485.504 254.154 487.38000000000005 254.422 493.13800000000003 256.096 L 497.42600000000004 249.064 L 481.68500000000006 249.064 L 481.68500000000006 231.516 C 486.9750000000001 231.316 489.92300000000006 231.986 495.54800000000006 234.53 L 499.36600000000004 226.761 L 472.30800000000005 226.761 C 473.713 231.114 474.184 236.071 474.184 239.487 L 474.184 264.067 C 474.185 270.496 473.18 274.045 472.309 276.993 z" stroke-linecap="round" />
</g>
		<g transform="matrix(0.66 0 0 0.66 75.22 -18.97)"  >
<path style="stroke: none; stroke-width: 1; stroke-dasharray: none; stroke-linecap: butt; stroke-dashoffset: 0; stroke-linejoin: miter; stroke-miterlimit: 4; fill: rgb(0,0,0); fill-rule: nonzero; opacity: 1;" vector-effect="non-scaling-stroke"  transform=" translate(-533.22, -251.88)" d="M 562.185 226.962 L 552.3399999999999 226.962 C 550.8679999999999 229.63899999999998 550.1979999999999 230.445 548.7239999999999 232.25199999999998 L 533.722 250.80499999999998 L 519.99 233.72599999999997 C 517.313 230.44499999999996 516.509 228.83599999999998 515.6370000000001 226.75999999999996 L 504.25100000000003 226.75999999999996 L 509.206 232.25199999999995 L 509.206 263.59799999999996 C 509.206 271.36699999999996 507.93600000000004 274.64799999999997 506.92900000000003 276.99299999999994 L 518.8530000000001 276.99299999999994 C 516.7090000000001 272.17099999999994 516.7090000000001 266.61099999999993 516.7090000000001 265.80699999999996 L 516.7090000000001 240.69199999999995 L 533.7220000000001 261.72299999999996 L 550.599 240.69199999999995 L 550.599 264.53499999999997 C 550.599 269.35699999999997 550.0640000000001 273.241 548.388 276.993 L 560.4440000000001 276.993 C 558.2330000000001 272.103 558.167 267.348 558.167 263.73199999999997 L 558.167 239.01899999999998 C 558.167 231.717 560.109 229.44 562.185 226.962 z" stroke-linecap="round" />
</g>
		<g transform="matrix(0.66 0 0 0.66 108.5 -18.97)"  >
<path style="stroke: none; stroke-width: 1; stroke-dasharray: none; stroke-linecap: butt; stroke-dashoffset: 0; stroke-linejoin: miter; stroke-miterlimit: 4; fill: rgb(0,0,0); fill-rule: nonzero; opacity: 1;" vector-effect="non-scaling-stroke"  transform=" translate(-583.34, -251.88)" d="M 577.714 272.238 L 577.714 253.887 C 581.532 254.154 583.408 254.422 589.166 256.096 L 593.4540000000001 249.064 L 577.7130000000001 249.064 L 577.7130000000001 231.516 C 583.003 231.316 585.951 231.986 591.576 234.53 L 595.394 226.761 L 568.336 226.761 C 569.741 231.114 570.212 236.071 570.212 239.487 L 570.212 264.067 C 570.212 270.496 569.207 274.045 568.336 276.993 L 594.657 276.993 L 598.342 268.622 C 587.693 272.238 584.145 272.238 577.714 272.238 z" stroke-linecap="round" />
</g>
		<g transform="matrix(0.66 0 0 0.66 -52.73 27.04)"  >
<polygon style="stroke: none; stroke-width: 1; stroke-dasharray: none; stroke-linecap: butt; stroke-dashoffset: 0; stroke-linejoin: miter; stroke-miterlimit: 4; fill: rgb(0,0,0); fill-rule: nonzero; opacity: 1;" vector-effect="non-scaling-stroke"  points="-5.71,1.12 6.68,1.12 6.68,-1.87 -5.71,-1.87 -5.71,-9.72 8.55,-9.72 8.55,-12.71 -8.99,-12.71 -8.99,12.72 8.99,12.72 8.99,9.76 -5.71,9.76 " />
</g>
		<g transform="matrix(0.66 0 0 0.66 -34.87 27.04)"  >
<path style="stroke: none; stroke-width: 1; stroke-dasharray: none; stroke-linecap: butt; stroke-dashoffset: 0; stroke-linejoin: miter; stroke-miterlimit: 4; fill: rgb(0,0,0); fill-rule: nonzero; opacity: 1;" vector-effect="non-scaling-stroke"  transform=" translate(-367.42, -321.16)" d="M 364.938 308.445 L 356.978 308.445 L 356.978 333.875 L 365.731 333.875 C 367.892 333.875 371.35 333.875 374.304 331.173 C 377.798 327.896 377.86899999999997 322.924 377.86899999999997 321.159 C 377.86899999999997 319.35699999999997 377.76199999999994 314.856 374.7 311.579 C 371.746 308.445 368.54 308.445 364.938 308.445 z M 370.557 329.913 C 368.865 330.885 367.171 330.922 364.938 330.957 L 360.436 330.957 L 360.436 311.435 L 364.43399999999997 311.435 C 366.236 311.435 367.712 311.435 369.11699999999996 311.866 C 373.188 313.127 374.412 317.017 374.412 321.19599999999997 C 374.411 326.671 372.25 328.976 370.557 329.913 z" stroke-linecap="round" />
</g>
		<g transform="matrix(0.66 0 0 0.66 -22.06 27.04)"  >
<rect style="stroke: none; stroke-width: 1; stroke-dasharray: none; stroke-linecap: butt; stroke-dashoffset: 0; stroke-linejoin: miter; stroke-miterlimit: 4; fill: rgb(0,0,0); fill-rule: nonzero; opacity: 1;" vector-effect="non-scaling-stroke"  x="-1.711" y="-12.715" rx="0" ry="0" width="3.422" height="25.43" />
</g>
		<g transform="matrix(0.66 0 0 0.66 -11.46 27.03)"  >
<polygon style="stroke: none; stroke-width: 1; stroke-dasharray: none; stroke-linecap: butt; stroke-dashoffset: 0; stroke-linejoin: miter; stroke-miterlimit: 4; fill: rgb(0,0,0); fill-rule: nonzero; opacity: 1;" vector-effect="non-scaling-stroke"  points="-9.33,-9.74 -1.69,-9.74 -1.69,12.73 1.73,12.73 1.73,-9.74 9.33,-9.74 9.33,-12.73 -9.33,-12.73 " />
</g>
		<g transform="matrix(0.66 0 0 0.66 -0.75 27.04)"  >
<rect style="stroke: none; stroke-width: 1; stroke-dasharray: none; stroke-linecap: butt; stroke-dashoffset: 0; stroke-linejoin: miter; stroke-miterlimit: 4; fill: rgb(0,0,0); fill-rule: nonzero; opacity: 1;" vector-effect="non-scaling-stroke"  x="-1.711" y="-12.715" rx="0" ry="0" width="3.422" height="25.43" />
</g>
		<g transform="matrix(0.66 0 0 0.66 13.65 27.04)"  >
<path style="stroke: none; stroke-width: 1; stroke-dasharray: none; stroke-linecap: butt; stroke-dashoffset: 0; stroke-linejoin: miter; stroke-miterlimit: 4; fill: rgb(0,0,0); fill-rule: nonzero; opacity: 1;" vector-effect="non-scaling-stroke"  transform=" translate(-440.5, -321.16)" d="M 440.517 307.797 C 434.213 307.797 427.694 311.72200000000004 427.694 321.16 C 427.694 329.08500000000004 432.665 334.523 440.408 334.523 C 448.837 334.523 453.30400000000003 328.54400000000004 453.30400000000003 320.908 C 453.304 312.624 447.648 307.797 440.517 307.797 z M 440.552 331.859 C 433.997 331.859 431.368 326.52799999999996 431.368 321.197 C 431.368 315.468 434.106 310.534 440.517 310.534 C 446.388 310.534 449.594 314.78499999999997 449.629 320.944 C 449.666 326.167 447.396 331.859 440.552 331.859 z" stroke-linecap="round" />
</g>
		<g transform="matrix(0.66 0 0 0.66 33.75 27.04)"  >
<polygon style="stroke: none; stroke-width: 1; stroke-dasharray: none; stroke-linecap: butt; stroke-dashoffset: 0; stroke-linejoin: miter; stroke-miterlimit: 4; fill: rgb(0,0,0); fill-rule: nonzero; opacity: 1;" vector-effect="non-scaling-stroke"  points="7.02,7.67 -6.77,-12.71 -9.94,-12.71 -9.94,12.72 -6.77,12.72 -7.06,-7.96 6.88,12.72 9.94,12.72 9.94,-12.71 6.88,-12.71 " />
</g>
		<g transform="matrix(0.66 0 0 0.66 51.99 27.04)"  >
<path style="stroke: none; stroke-width: 1; stroke-dasharray: none; stroke-linecap: butt; stroke-dashoffset: 0; stroke-linejoin: miter; stroke-miterlimit: 4; fill: rgb(0,0,0); fill-rule: nonzero; opacity: 1;" vector-effect="non-scaling-stroke"  transform=" translate(-498.24, -321.16)" d="M 504.316 320.223 C 503.30699999999996 319.79200000000003 502.263 319.575 500.318 319.106 L 497.507 318.38599999999997 C 495.311 317.88199999999995 492.5 317.234 492.5 314.424 C 492.5 311.68699999999995 495.201 310.426 498.262 310.426 C 499.884 310.426 501.50600000000003 310.715 502.802 311.65 C 504.709 313.05499999999995 504.81800000000004 315.072 504.85400000000004 315.864 L 508.27600000000007 315.649 C 508.02400000000006 314.099 507.5210000000001 311.507 504.9990000000001 309.668 C 502.6960000000001 307.976 499.9570000000001 307.796 498.1550000000001 307.796 C 496.3900000000001 307.796 493.6170000000001 308.013 491.34800000000007 309.957 C 490.3740000000001 310.786 489.0060000000001 312.37 489.0060000000001 314.892 C 489.0060000000001 320.151 494.4090000000001 321.376 498.08400000000006 322.132 L 500.2080000000001 322.565 C 502.6950000000001 323.069 505.0350000000001 323.861 505.0350000000001 326.814 C 505.0350000000001 330.12800000000004 502.29800000000006 331.89300000000003 498.6950000000001 331.89300000000003 C 496.8210000000001 331.89300000000003 494.9140000000001 331.46200000000005 493.4730000000001 330.201 C 491.5620000000001 328.507 491.45500000000015 326.274 491.4180000000001 325.302 L 487.7810000000001 325.77000000000004 C 488.35700000000014 334.163 496.2450000000001 334.523 498.5500000000001 334.523 C 500.0980000000001 334.523 503.01600000000013 334.379 505.4660000000001 332.721 C 507.7360000000001 331.173 508.70800000000014 328.94 508.70800000000014 326.563 C 508.71 324.871 508.134 321.808 504.316 320.223 z" stroke-linecap="round" />
</g>
</g>
</g>
</svg>