<?xml version="1.0" encoding="utf-8"?>
<!-- Generator: Adobe Illustrator 17.0.0, SVG Export Plug-In . SVG Version: 6.00 Build 0)  -->
<!DOCTYPE svg PUBLIC "-//W3C//DTD SVG 1.1//EN" "http://www.w3.org/Graphics/SVG/1.1/DTD/svg11.dtd">
<svg version="1.1" id="Calque_1" xmlns="http://www.w3.org/2000/svg" xmlns:xlink="http://www.w3.org/1999/xlink" x="0px" y="0px"
	 width="641.89px" height="395.28px" viewBox="0 0 841.89 595.28" enable-background="new 0 0 841.89 595.28" xml:space="preserve">
<g>
	<path d="M241.546,235.267c9.712-3.483,12.659-3.483,16.007-3.416v32.35c0,5.96-0.669,9.645-1.406,12.793h10.247
		c-1.071-3.885-1.406-7.969-1.406-11.989v-33.153c5.827,0,7.635,0.468,13.128,2.679l3.482-7.703h-37.372L241.546,235.267z"/>
	<path d="M327.872,226.627h-11.453c0.87,2.679,1.942,5.894,1.942,12.793v8.906h-21.5v-10.18c0-6.362,1.139-9.175,2.01-11.519h-11.52
		c0.804,2.277,1.942,5.76,1.942,12.926v24.513c0,7.501-1.072,10.582-1.942,12.926h11.386c-0.87-2.948-1.876-6.027-1.876-13.998
		v-8.304h21.5v8.84c0,8.038-0.871,10.382-1.942,13.463h11.453c-1.072-2.948-1.942-5.425-1.942-13.73v-23.241
		C325.929,232.319,326.733,229.908,327.872,226.627z"/>
	<path d="M336.436,276.993h26.322l3.684-8.371c-10.65,3.616-14.199,3.616-20.629,3.616v-18.351
		c3.818,0.267,5.693,0.535,11.453,2.209l4.286-7.032h-15.74v-17.548c5.291-0.2,8.238,0.47,13.864,3.014l3.818-7.769h-27.059
		c1.406,4.353,1.876,9.31,1.876,12.726v24.58C338.312,270.496,337.306,274.045,336.436,276.993z"/>
	<path d="M398.115,226.359c-17.48,0-27.527,13.796-27.527,24.982c0,12.859,10.047,25.987,26.255,25.987
		c14.199,0,26.255-9.98,26.255-25.652C423.098,238.95,414.726,226.359,398.115,226.359z M398.919,271.903
		c-9.577,0-19.892-8.104-19.892-21.701c0-9.712,6.497-18.485,16.611-18.485c11.721,0,19.691,11.386,19.691,21.834
		C415.329,261.388,410.104,271.903,398.919,271.903z"/>
	<path d="M449.946,254.488c2.277-1.205,9.512-5.223,9.512-13.395c0-6.764-6.096-14.533-19.022-14.333l-9.779,0.133
		c0.536,1.742,1.34,4.488,1.34,10.382V264c0,4.353-0.268,8.036-1.34,12.993h10.181c-1.341-5.359-1.407-6.966-1.407-10.85v-12.391
		c10.382,13.798,13.463,17.414,20.227,23.241h6.899C460.594,269.827,454.432,262.393,449.946,254.488z M439.43,253.015v-21.968
		c10.047,1.005,12.391,7.032,12.391,10.784C451.821,249.534,444.185,251.676,439.43,253.015z"/>
	<path d="M472.309,276.993h26.321l3.685-8.371c-10.65,3.616-14.198,3.616-20.629,3.616v-18.351
		c3.818,0.267,5.694,0.535,11.452,2.209l4.288-7.032h-15.741v-17.548c5.29-0.2,8.238,0.47,13.863,3.014l3.818-7.769h-27.058
		c1.405,4.353,1.876,9.31,1.876,12.726v24.58C474.185,270.496,473.18,274.045,472.309,276.993z"/>
	<path d="M562.185,226.962h-9.845c-1.472,2.677-2.142,3.483-3.616,5.29l-15.002,18.553l-13.732-17.079
		c-2.677-3.281-3.481-4.89-4.353-6.966h-11.386l4.955,5.492v31.346c0,7.769-1.27,11.05-2.277,13.395h11.924
		c-2.144-4.822-2.144-10.382-2.144-11.186v-25.115l17.013,21.031l16.877-21.031v23.843c0,4.822-0.535,8.706-2.211,12.458h12.056
		c-2.211-4.89-2.277-9.645-2.277-13.261v-24.713C558.167,231.717,560.109,229.44,562.185,226.962z"/>
	<path d="M577.714,272.238v-18.351c3.818,0.267,5.694,0.535,11.452,2.209l4.288-7.032h-15.741v-17.548
		c5.29-0.2,8.238,0.47,13.863,3.014l3.818-7.769h-27.058c1.405,4.353,1.876,9.31,1.876,12.726v24.58
		c0,6.429-1.005,9.978-1.876,12.926h26.321l3.685-8.371C587.693,272.238,584.145,272.238,577.714,272.238z"/>
	<polygon points="334.823,322.277 347.214,322.277 347.214,319.287 334.823,319.287 334.823,311.436 349.086,311.436
		349.086,308.445 331.545,308.445 331.545,333.875 349.519,333.875 349.519,330.922 334.823,330.922 	"/>
	<path d="M364.938,308.445h-7.96v25.43h8.753c2.161,0,5.619,0,8.573-2.702c3.494-3.277,3.565-8.249,3.565-10.014
		c0-1.802-0.107-6.303-3.169-9.58C371.746,308.445,368.54,308.445,364.938,308.445z M370.557,329.913
		c-1.692,0.972-3.386,1.009-5.619,1.044h-4.502v-19.522h3.998c1.802,0,3.278,0,4.683,0.431c4.071,1.261,5.295,5.151,5.295,9.33
		C374.411,326.671,372.25,328.976,370.557,329.913z"/>
	<rect x="385.006" y="308.445" width="3.422" height="25.43"/>
	<polygon points="393.363,311.399 400.999,311.399 400.999,333.875 404.421,333.875 404.421,311.399 412.021,311.399
		412.021,308.41 393.363,308.41 	"/>
	<rect x="417.104" y="308.445" width="3.422" height="25.43"/>
	<path d="M440.517,307.797c-6.304,0-12.823,3.925-12.823,13.363c0,7.925,4.971,13.363,12.714,13.363
		c8.429,0,12.896-5.979,12.896-13.615C453.304,312.624,447.648,307.797,440.517,307.797z M440.552,331.859
		c-6.555,0-9.184-5.331-9.184-10.662c0-5.729,2.738-10.663,9.149-10.663c5.871,0,9.077,4.251,9.112,10.41
		C449.666,326.167,447.396,331.859,440.552,331.859z"/>
	<polygon points="477.803,328.833 464.005,308.445 460.837,308.445 460.837,333.875 464.005,333.875 463.718,313.2 477.659,333.875
		480.719,333.875 480.719,308.445 477.659,308.445 	"/>
	<path d="M504.316,320.223c-1.009-0.431-2.053-0.648-3.998-1.117l-2.811-0.72c-2.196-0.504-5.007-1.152-5.007-3.962
		c0-2.737,2.701-3.998,5.762-3.998c1.622,0,3.244,0.289,4.54,1.224c1.907,1.405,2.016,3.422,2.052,4.214l3.422-0.215
		c-0.252-1.55-0.755-4.142-3.277-5.981c-2.303-1.692-5.042-1.872-6.844-1.872c-1.765,0-4.538,0.217-6.807,2.161
		c-0.974,0.829-2.342,2.413-2.342,4.935c0,5.259,5.403,6.484,9.078,7.24l2.124,0.433c2.487,0.504,4.827,1.296,4.827,4.249
		c0,3.314-2.737,5.079-6.34,5.079c-1.874,0-3.781-0.431-5.222-1.692c-1.911-1.694-2.018-3.927-2.055-4.899l-3.637,0.468
		c0.576,8.393,8.464,8.753,10.769,8.753c1.548,0,4.466-0.144,6.916-1.802c2.27-1.548,3.242-3.781,3.242-6.158
		C508.71,324.871,508.134,321.808,504.316,320.223z"/>
</g>
</svg>
